<?xml version="1.0" standalone="no"?>
<!DOCTYPE svg PUBLIC "-//W3C//DTD SVG 20010904//EN"
 "http://www.w3.org/TR/2001/REC-SVG-20010904/DTD/svg10.dtd">
<svg version="1.0" xmlns="http://www.w3.org/2000/svg"
 width="400.000000pt" height="400.000000pt" viewBox="0 0 400.000000 400.000000"
 preserveAspectRatio="xMidYMid meet">
<metadata>
Created by potrace 1.11, written by Peter Selinger 2001-2013
</metadata>
<g transform="translate(0.000000,400.000000) scale(0.100000,-0.100000)"
fill="#000000" stroke="none">
<path d="M2268 3953 c7 -3 16 -2 19 1 4 3 -2 6 -13 5 -11 0 -14 -3 -6 -6z"/>
<path d="M2328 3933 c7 -3 16 -2 19 1 4 3 -2 6 -13 5 -11 0 -14 -3 -6 -6z"/>
<path d="M2158 3923 c6 -2 18 -2 25 0 6 3 1 5 -13 5 -14 0 -19 -2 -12 -5z"/>
<path d="M2278 3923 c7 -3 16 -2 19 1 4 3 -2 6 -13 5 -11 0 -14 -3 -6 -6z"/>
<path d="M2438 3903 c7 -3 16 -2 19 1 4 3 -2 6 -13 5 -11 0 -14 -3 -6 -6z"/>
<path d="M2475 3880 c3 -5 15 -10 26 -10 11 0 17 5 14 10 -3 6 -15 10 -26 10
-11 0 -17 -4 -14 -10z"/>
<path d="M1700 3830 c-13 -8 -13 -10 2 -10 9 0 20 5 23 10 8 13 -5 13 -25 0z"/>
<path d="M1992 3775 c-15 -18 -36 -20 -26 -3 4 7 3 8 -5 4 -6 -4 -9 -12 -6
-17 3 -5 0 -7 -7 -4 -8 3 -27 -16 -47 -45 -19 -27 -37 -47 -41 -45 -5 3 -6 -5
-2 -17 4 -15 2 -19 -8 -13 -10 6 -10 4 -2 -10 7 -13 4 -32 -10 -69 -30 -77
-42 -99 -46 -87 -2 6 10 40 27 76 16 36 26 65 21 65 -19 0 -46 -41 -78 -117
-41 -98 -59 -129 -72 -125 -14 3 -49 -79 -56 -131 l-5 -42 16 28 c20 34 29 35
23 2 -6 -30 12 -34 19 -4 4 16 8 17 14 7 6 -9 9 -7 9 8 0 11 15 36 33 56 17
19 38 43 44 54 7 10 -1 -9 -18 -42 -17 -34 -29 -72 -27 -85 3 -21 6 -17 26 24
24 50 38 64 22 21 -6 -14 -10 -30 -10 -35 0 -16 21 1 30 25 l9 21 0 -22 c1
-12 -6 -28 -14 -37 -38 -38 -4 -35 37 4 36 35 58 40 34 8 -27 -38 -40 -68 -32
-76 4 -4 14 2 22 13 8 11 19 20 24 20 5 0 16 9 25 20 14 17 16 17 11 2 -5 -15
-3 -16 15 -6 19 10 20 9 9 -11 -18 -33 -4 -36 24 -4 33 39 54 113 58 205 4 87
6 88 -72 -31 -24 -36 -40 -57 -36 -47 6 19 59 107 132 222 24 38 44 74 44 80
-1 5 -8 -2 -16 -17 -17 -33 -24 -35 -24 -10 0 11 13 39 30 63 36 53 41 81 8
53 -11 -10 -41 -45 -65 -78 -43 -58 -58 -69 -26 -18 17 26 17 26 -1 12 -29
-23 -94 -124 -137 -213 -43 -90 -46 -78 -4 20 24 58 81 161 96 173 3 3 13 19
22 36 9 17 34 47 57 68 45 40 46 57 4 38 -18 -9 -23 -9 -18 -1 4 7 1 10 -7 7
-8 -3 -13 -11 -11 -17 1 -6 -4 -10 -10 -8 -7 1 -12 -3 -11 -10 2 -7 -3 -10
-10 -7 -13 5 -77 -91 -77 -116 -1 -18 -50 -120 -50 -104 0 16 37 129 51 156
l12 23 -23 -20 -24 -20 22 32 c13 18 48 55 79 82 31 28 53 51 47 51 -5 -1 -15
-7 -22 -15z m-39 -280 c-9 -19 -18 -33 -21 -31 -4 5 26 66 33 66 3 0 -3 -16
-12 -35z m-127 -91 c-4 -9 -9 -15 -11 -12 -3 3 -3 13 1 22 4 9 9 15 11 12 3
-3 3 -13 -1 -22z m-141 -83 c-3 -12 -10 -21 -15 -21 -5 0 -4 11 2 25 13 29 23
26 13 -4z"/>
<path d="M1590 3765 c-16 -9 -19 -14 -9 -15 8 0 24 7 35 15 24 18 7 19 -26 0z"/>
<path d="M2310 3763 c0 -17 15 -16 30 1 9 12 8 15 -9 13 -12 -1 -21 -7 -21
-14z"/>
<path d="M2213 3715 c-22 -19 -48 -51 -58 -72 -16 -35 -82 -141 -95 -153 -3
-3 -6 -14 -8 -25 -15 -104 -15 -106 1 -99 14 5 14 -1 -3 -45 -22 -61 -7 -80
16 -21 22 54 31 43 11 -12 -8 -24 -18 -56 -22 -73 -3 -16 -8 -39 -11 -50 -4
-15 -3 -17 5 -6 13 20 44 24 37 5 -9 -24 6 -16 42 24 25 27 33 31 28 16 -5
-17 -2 -23 16 -27 12 -4 28 -1 36 5 12 10 11 13 -5 19 -16 7 -15 8 5 8 16 1
21 5 16 14 -4 6 -4 9 1 5 17 -16 42 11 37 38 -3 17 -1 25 5 21 6 -4 13 1 15
11 3 11 26 24 62 35 32 10 54 23 50 28 -3 6 -12 8 -20 5 -17 -7 -18 6 -2 22 7
7 8 12 3 12 -6 0 -20 -16 -33 -36 -13 -20 -25 -34 -28 -31 -10 9 16 54 57 102
37 41 39 46 14 28 -16 -11 -52 -42 -79 -67 -53 -51 -58 -54 -49 -28 4 11 -5 7
-27 -13 -18 -16 -29 -23 -25 -15 9 15 44 44 58 46 4 1 10 2 15 3 4 1 0 6 -8
12 -13 9 -12 10 3 5 9 -3 17 -1 17 4 0 5 16 20 35 33 19 13 52 39 73 58 20 19
70 63 110 98 39 34 69 67 66 72 -11 19 -60 -2 -94 -39 -59 -64 -90 -83 -45
-28 33 42 36 49 18 44 -12 -3 -24 -1 -27 6 -3 7 -8 6 -15 -4 -7 -10 -11 -11
-11 -3 0 7 9 18 20 25 11 7 20 16 20 21 0 11 -39 -11 -68 -38 -13 -12 -40 -32
-60 -45 -32 -21 -61 -51 -159 -169 -19 -22 -21 -23 -18 -6 2 11 4 24 4 28 1 5
6 5 11 2 6 -3 10 3 10 15 0 12 5 18 10 15 6 -3 11 -1 11 4 2 15 4 23 13 43 4
9 8 23 10 30 1 8 12 27 24 42 12 16 22 34 23 40 2 27 7 52 13 67 14 31 -11 28
-51 -6z m-118 -290 c-14 -26 -25 -43 -25 -36 0 13 43 91 48 87 1 -2 -9 -25
-23 -51z m19 -59 c-3 -9 -10 -16 -15 -16 -6 0 -5 9 1 21 13 24 24 20 14 -5z"/>
<path d="M1510 3720 c-9 -6 -10 -10 -3 -10 6 0 15 5 18 10 8 12 4 12 -15 0z"/>
<path d="M1742 3648 c-18 -39 -34 -97 -30 -115 2 -11 15 10 32 50 19 44 26 71
19 78 -6 6 -13 2 -21 -13z"/>
<path d="M2970 3624 c0 -10 31 -36 37 -31 3 3 -2 13 -10 22 -16 15 -27 19 -27
9z"/>
<path d="M2588 3615 c-3 -3 -15 -8 -28 -10 -28 -5 -51 -25 -44 -36 3 -5 -3 -9
-13 -9 -10 0 -29 -9 -43 -20 -35 -27 -15 -23 55 11 36 17 49 27 32 24 -19 -4
-26 -2 -22 5 3 5 19 10 35 10 16 0 32 5 35 11 8 11 2 22 -7 14z"/>
<path d="M1670 3530 c-11 -16 -26 -43 -31 -60 -6 -16 -15 -30 -19 -30 -4 0 -6
-10 -2 -22 3 -12 1 -19 -5 -15 -23 14 -44 -106 -34 -196 2 -20 21 7 21 31 0
15 9 38 20 52 11 14 20 35 20 48 0 12 11 50 25 83 22 54 40 139 30 139 -2 0
-13 -13 -25 -30z"/>
<path d="M2577 3513 c-9 -2 -15 -9 -12 -14 4 -5 -2 -9 -11 -9 -20 0 -84 -41
-84 -54 0 -5 6 -4 13 1 6 6 33 18 60 28 26 10 57 26 69 36 20 18 20 19 2 18
-10 -1 -27 -3 -37 -6z"/>
<path d="M2676 3491 c-4 -5 3 -7 14 -4 23 6 26 13 6 13 -8 0 -17 -4 -20 -9z"/>
<path d="M2580 3450 c0 -13 11 -13 30 0 12 8 11 10 -7 10 -13 0 -23 -4 -23
-10z"/>
<path d="M3104 3435 c11 -8 25 -15 30 -15 6 0 2 7 -8 15 -11 8 -25 15 -30 15
-6 0 -2 -7 8 -15z"/>
<path d="M1476 3415 c-16 -25 -23 -57 -8 -39 10 11 33 64 28 64 -2 0 -11 -11
-20 -25z"/>
<path d="M1501 3384 c0 -11 3 -14 6 -6 3 7 2 16 -1 19 -3 4 -6 -2 -5 -13z"/>
<path d="M1531 3348 c0 -9 -4 -25 -7 -35 -5 -14 -4 -15 5 -7 7 7 11 22 8 35
-2 13 -5 16 -6 7z"/>
<path d="M3287 3289 c7 -7 15 -10 18 -7 3 3 -2 9 -12 12 -14 6 -15 5 -6 -5z"/>
<path d="M2440 3263 c-14 -3 -29 -8 -34 -13 -4 -5 11 -4 35 1 67 15 66 24 -1
12z"/>
<path d="M2710 3240 c8 -5 22 -10 30 -10 13 0 13 1 0 10 -8 5 -22 10 -30 10
-13 0 -13 -1 0 -10z"/>
<path d="M3260 3216 c28 -17 50 -21 35 -7 -6 5 -21 12 -35 15 l-25 7 25 -15z"/>
<path d="M3356 3205 c-9 -26 -7 -32 5 -12 6 10 9 21 6 23 -2 3 -7 -2 -11 -11z"/>
<path d="M2753 3146 c20 -25 40 -61 47 -81 6 -19 15 -35 20 -35 14 0 60 23 60
29 0 9 -20 37 -20 29 0 -4 -21 15 -47 42 -27 26 -58 51 -71 55 -21 6 -20 3 11
-39z"/>
<path d="M2825 3150 c3 -5 8 -10 11 -10 2 0 4 5 4 10 0 6 -5 10 -11 10 -5 0
-7 -4 -4 -10z"/>
<path d="M3365 3151 c-3 -5 -1 -12 5 -16 5 -3 10 1 10 9 0 18 -6 21 -15 7z"/>
<path d="M3353 3073 c9 -9 20 -13 24 -9 4 4 1 11 -7 16 -25 16 -35 11 -17 -7z"/>
<path d="M2900 3073 c0 -5 6 -15 13 -22 10 -11 8 -12 -9 -7 -14 4 -27 -1 -42
-18 l-21 -25 35 -13 c29 -10 32 -14 17 -19 -16 -7 -15 -8 3 -8 12 -1 25 -8 28
-17 4 -10 14 -14 25 -11 15 4 18 0 16 -18 -1 -17 2 -22 13 -17 9 3 13 1 9 -5
-10 -16 3 -43 19 -43 8 0 14 5 14 10 0 6 10 10 23 10 17 0 12 5 -21 22 -26 14
-41 27 -37 35 3 8 -6 18 -22 24 -14 5 -23 12 -20 16 5 5 51 -13 92 -35 6 -3
-5 9 -24 26 -19 19 -31 38 -28 46 4 10 1 13 -8 10 -10 -4 -12 0 -8 15 3 12 1
21 -6 21 -5 0 -8 -7 -5 -15 4 -10 0 -15 -16 -15 -16 0 -20 4 -15 19 3 10 -1
24 -10 31 -8 7 -15 8 -15 3z"/>
<path d="M3377 3029 c7 -7 15 -10 18 -7 3 3 -2 9 -12 12 -14 6 -15 5 -6 -5z"/>
<path d="M3372 2995 c-10 -12 -10 -15 2 -15 7 0 16 7 20 15 7 19 -5 19 -22 0z"/>
<path d="M3340 2928 c0 -13 5 -30 10 -38 7 -11 10 -7 10 17 0 17 -4 35 -10 38
-6 3 -10 -4 -10 -17z"/>
<path d="M3330 2862 c0 -11 6 -22 14 -25 10 -4 12 0 9 14 -7 27 -23 34 -23 11z"/>
<path d="M3325 2808 c16 -53 16 -66 0 -82 -11 -11 -14 -21 -7 -29 13 -17 23
-77 13 -77 -15 0 -7 -35 9 -41 8 -3 18 -19 22 -35 6 -28 3 202 -4 241 -4 26
-17 45 -30 45 -6 0 -8 -9 -3 -22z"/>
<path d="M1070 2809 c0 -6 -7 -9 -15 -5 -10 4 -15 -1 -15 -14 0 -11 -6 -20
-13 -20 -18 0 -67 -56 -67 -76 0 -8 -5 -24 -11 -36 -6 -11 -12 -34 -14 -52 -1
-17 -12 -55 -24 -83 -11 -29 -17 -53 -12 -53 4 0 11 -33 14 -74 8 -89 57 -265
94 -336 7 -14 13 -32 13 -41 0 -8 7 -24 15 -35 8 -10 15 -34 15 -53 0 -30 -2
-33 -24 -27 -14 3 -27 2 -30 -3 -7 -11 22 -127 41 -165 8 -15 10 -25 4 -21 -6
3 -4 -10 6 -29 9 -20 20 -36 25 -36 4 0 8 -12 8 -27 1 -25 2 -26 11 -10 6 10
8 29 5 42 -3 13 -2 26 3 30 6 3 14 -14 20 -37 8 -32 9 4 5 147 -6 255 -16 312
-75 440 -51 110 -50 265 3 419 11 34 21 66 22 72 1 7 7 18 14 26 9 11 9 17 0
26 -9 9 -9 12 0 12 17 0 15 17 -3 24 -8 3 -15 1 -15 -5z"/>
<path d="M3093 2664 c5 -29 -15 -43 -36 -25 -11 8 -16 -2 -28 -52 -29 -130 -8
-325 47 -431 17 -32 23 -57 19 -73 -3 -14 -2 -30 3 -36 5 -7 12 -25 16 -40 4
-16 11 -25 17 -21 7 4 10 -3 9 -17 -4 -39 -1 -44 15 -23 13 18 14 16 13 -22
-1 -44 31 -104 56 -104 7 0 25 -11 41 -24 21 -18 25 -29 20 -45 -4 -13 -12
-20 -18 -18 -7 2 -19 -2 -26 -11 -13 -13 -11 -14 15 -8 47 12 94 37 109 60 27
38 10 188 -25 211 -22 15 -73 22 -91 14 -14 -7 -15 -3 -6 36 6 24 16 46 22 49
9 3 11 -2 7 -16 -4 -18 -2 -20 14 -13 10 4 31 10 46 13 25 4 30 -1 49 -44 12
-27 26 -87 33 -134 l11 -85 19 60 c27 82 29 98 28 195 -1 63 -6 97 -22 133
-11 26 -23 47 -25 47 -2 0 -19 -9 -38 -20 -46 -27 -81 -21 -85 13 -5 42 47 84
97 77 14 -1 14 0 -4 108 -8 42 -24 58 -26 25 -1 -10 -7 0 -13 22 -24 74 -28
85 -36 85 -5 0 -10 -8 -13 -17 -2 -12 -11 -2 -26 31 -17 38 -24 46 -35 37 -16
-13 -26 -5 -27 23 0 16 -4 13 -12 -11 -14 -39 -26 -33 -55 23 -18 36 -38 54
-59 54 -3 0 -3 -12 0 -26z"/>
<path d="M1801 2671 c-10 -6 1 -8 30 -4 24 3 46 7 48 9 10 9 -65 3 -78 -5z"/>
<path d="M2140 2567 c0 -8 -6 -17 -12 -20 -9 -3 -6 -12 10 -28 l22 -23 0 22
c0 13 6 22 15 22 18 0 19 -12 3 -28 -7 -7 -8 -12 -2 -13 75 -4 177 -2 181 4 2
4 -5 7 -17 7 -13 0 -19 4 -14 12 5 8 -6 10 -42 5 -27 -3 -43 -3 -36 0 6 2 12
11 12 19 0 8 -6 15 -12 15 -7 1 -26 2 -43 3 -16 1 -38 6 -47 10 -13 6 -18 4
-18 -7z"/>
<path d="M1465 2514 c-33 -7 -78 -13 -100 -14 -24 0 -35 -3 -27 -8 7 -5 36 -5
65 -1 28 5 79 11 112 15 73 8 108 24 50 22 -22 -1 -67 -7 -100 -14z"/>
<path d="M1755 2500 c-3 -5 -17 -10 -31 -10 -14 0 -22 -4 -19 -10 3 -5 -7 -12
-22 -16 -55 -12 -62 -15 -65 -31 -2 -12 -18 -16 -62 -19 -33 -1 -67 1 -75 5
-9 4 -38 2 -66 -5 -27 -7 -45 -13 -40 -13 6 -1 2 -6 -7 -12 -16 -9 -16 -11 2
-29 22 -22 40 -26 40 -10 0 6 13 8 28 5 18 -3 45 3 71 16 23 11 46 17 51 14 5
-3 17 -1 27 4 19 10 185 41 218 41 17 0 17 -2 5 -10 -8 -5 -25 -10 -37 -10
-15 0 -21 -5 -17 -14 4 -11 -3 -16 -26 -18 l-32 -3 27 -29 c22 -23 29 -26 36
-15 6 9 9 10 9 2 0 -6 -5 -15 -10 -18 -6 -4 -7 -11 -4 -17 5 -7 12 -5 20 7 12
17 15 17 47 2 47 -23 57 -37 62 -90 5 -46 4 -46 -20 -37 -14 5 -25 6 -25 1 0
-5 -17 -1 -38 9 -29 14 -47 16 -80 10 -24 -4 -49 -13 -55 -19 -8 -8 -14 -7
-24 1 -7 6 -16 8 -20 4 -4 -3 2 -13 13 -21 18 -14 17 -14 -12 -15 -17 0 -34 3
-38 7 -13 13 -61 8 -74 -7 -10 -11 -15 -12 -18 -2 -9 19 -24 14 -24 -7 0 -23
-16 -36 -25 -20 -5 7 -14 3 -26 -10 -29 -31 -21 -59 9 -29 9 9 13 7 18 -5 3
-9 12 -17 20 -17 15 0 17 -10 8 -35 -7 -18 -61 -48 -73 -40 -5 2 -24 -11 -42
-30 -34 -33 -75 -66 -134 -105 -29 -18 -31 -24 -33 -88 l-3 -69 38 -25 c27
-18 48 -24 69 -21 24 4 32 0 44 -21 10 -20 21 -26 46 -26 20 0 41 -8 52 -20
35 -38 177 -49 225 -17 15 9 35 17 46 17 11 0 40 11 63 24 37 21 46 32 64 86
12 34 26 66 32 72 6 6 8 17 5 24 -4 11 6 14 40 14 42 0 49 -4 91 -51 25 -28
46 -57 46 -65 0 -7 10 -19 23 -25 12 -7 27 -19 33 -27 9 -12 12 -11 24 3 12
15 15 14 37 -12 18 -20 26 -24 32 -14 9 13 181 19 201 6 6 -4 17 -1 25 5 8 7
26 10 40 7 18 -3 29 1 36 14 5 11 18 19 28 19 21 0 64 34 54 44 -3 3 3 6 15 6
11 0 33 12 49 26 15 14 40 28 55 31 15 3 28 9 28 14 0 4 18 14 41 20 23 7 48
23 56 36 8 13 20 23 27 23 6 0 21 8 34 18 l23 18 -27 14 c-16 8 -40 28 -55 43
-15 16 -30 28 -34 27 -6 -2 -50 14 -105 38 -23 10 -35 11 -38 4 -2 -7 -16 -4
-38 9 -20 11 -39 17 -44 14 -5 -3 -12 1 -17 9 -5 8 -29 26 -54 39 -41 22 -47
23 -57 8 -10 -14 -12 -14 -18 7 -4 13 -14 22 -25 22 -11 0 -19 4 -19 9 0 5
-18 12 -40 16 -35 6 -38 8 -25 22 8 8 15 18 15 23 0 4 16 11 35 14 51 10 44
32 -12 44 -59 12 -189 8 -207 -7 -7 -6 -26 -11 -44 -13 -19 -1 -32 -8 -35 -19
-7 -26 -85 -63 -103 -49 -22 19 -45 70 -31 70 9 0 9 2 0 8 -6 4 -10 20 -9 35
2 15 -1 30 -6 33 -4 3 -6 9 -3 14 3 5 1 11 -5 15 -17 11 -11 25 12 25 20 0 20
1 4 19 -16 18 -16 19 6 24 13 3 67 9 120 12 60 5 95 11 92 17 -4 6 3 8 17 3
19 -5 21 -4 9 4 -8 6 -27 11 -42 11 -14 0 -28 5 -30 11 -6 19 -158 8 -158 -12
0 -16 -83 2 -132 27 -29 15 -49 21 -53 14z m-88 -66 c-3 -3 -12 -4 -19 -1 -8
3 -5 6 6 6 11 1 17 -2 13 -5z"/>
<path d="M2395 2500 c3 -5 17 -10 31 -10 14 0 22 4 19 10 -3 6 -17 10 -31 10
-14 0 -22 -4 -19 -10z"/>
<path d="M1428 2323 c7 -3 16 -2 19 1 4 3 -2 6 -13 5 -11 0 -14 -3 -6 -6z"/>
<path d="M1298 2273 c7 -3 16 -2 19 1 4 3 -2 6 -13 5 -11 0 -14 -3 -6 -6z"/>
<path d="M3357 1722 c-21 -23 -22 -62 -2 -62 14 0 55 54 55 73 0 14 -37 7 -53
-11z"/>
<path d="M1132 1575 c0 -16 2 -22 5 -12 2 9 2 23 0 30 -3 6 -5 -1 -5 -18z"/>
<path d="M3170 1457 c0 -13 5 -28 12 -35 14 -14 94 -16 103 -2 3 6 -4 10 -18
10 -13 0 -41 11 -61 25 l-36 24 0 -22z"/>
<path d="M2194 1449 c-4 -8 -3 -14 5 -17 51 -17 129 -140 117 -185 -5 -21 -13
-25 -65 -30 -33 -4 -84 -16 -113 -27 -55 -21 -113 -26 -122 -11 -11 16 -59 23
-68 9 -5 -8 -11 -9 -15 -3 -9 12 -53 13 -70 2 -6 -4 -18 -4 -27 -1 -9 3 -27
-1 -39 -9 -13 -8 -41 -14 -63 -14 -37 2 -39 4 -42 38 -2 22 7 61 22 98 14 34
21 59 16 56 -4 -3 -10 0 -12 6 -4 13 -113 -49 -162 -91 -39 -35 -82 -53 -106
-45 -11 3 -20 -1 -24 -10 -3 -8 -17 -15 -31 -15 -14 0 -25 -4 -25 -8 0 -4 -9
-8 -20 -9 -16 -1 -18 2 -10 16 9 19 4 31 -13 31 -5 0 -7 -7 -3 -15 3 -8 2 -16
-2 -16 -28 -5 -52 -5 -52 0 0 3 -14 22 -31 41 -20 22 -29 28 -24 15 4 -11 16
-54 27 -95 34 -128 76 -274 87 -304 38 -96 203 -322 297 -404 24 -22 44 -45
44 -51 0 -7 6 -9 13 -6 6 4 5 1 -4 -7 -23 -19 -41 -57 -33 -70 4 -6 3 -8 -3
-5 -7 4 -14 -8 -18 -29 -3 -20 -10 -44 -15 -53 -25 -50 -31 -70 -33 -104 -1
-20 -6 -37 -10 -37 -5 0 -6 -4 -3 -9 3 -4 -1 -17 -9 -27 -8 -10 -15 -27 -15
-36 0 -17 15 -18 180 -18 l179 0 6 38 c11 68 27 122 37 122 6 0 7 -10 3 -22
-15 -53 -25 -94 -25 -115 l0 -23 445 0 c389 0 445 2 445 15 0 8 7 15 15 15 9
0 16 14 20 38 11 61 14 66 42 80 38 17 53 15 74 -9 10 -12 30 -21 44 -21 13 0
22 -4 19 -9 -3 -5 -14 -9 -24 -9 -10 0 -22 -4 -25 -10 -3 -5 -3 -10 2 -10 4 0
9 -11 9 -25 1 -14 -2 -25 -6 -25 -4 0 -10 -7 -14 -15 -5 -13 24 -15 235 -15
132 1 237 5 234 9 -3 5 3 12 12 15 15 6 15 8 3 16 -8 6 -10 10 -5 10 6 0 11
20 10 45 0 25 -2 45 -5 45 -3 0 -22 -27 -44 -60 -21 -34 -45 -60 -55 -60 -13
0 -14 2 -2 9 12 8 10 12 -11 22 -15 6 -29 20 -31 30 -3 11 -13 19 -22 19 -9 0
-13 5 -10 10 4 7 12 7 25 0 30 -16 37 -11 12 10 -13 10 -30 16 -38 13 -8 -3
-40 5 -71 18 l-56 23 37 13 c21 7 55 15 77 17 21 3 44 8 51 12 7 5 8 3 3 -6
-6 -10 -4 -12 9 -7 9 4 36 0 59 -8 52 -18 77 -19 77 -2 -1 22 -29 50 -44 44
-9 -4 -18 -2 -21 3 -3 5 -12 7 -20 4 -8 -3 -22 1 -30 10 -14 14 -41 20 -82 19
-7 -1 -11 3 -8 7 3 4 -2 11 -11 14 -22 9 -26 8 -18 -5 7 -13 -37 -2 -46 11 -3
4 -15 7 -27 6 -12 0 -23 4 -24 9 -1 6 -9 15 -17 21 -13 9 -12 12 4 18 19 7 19
8 0 22 -11 8 -16 14 -11 14 4 0 0 10 -11 21 -19 22 -19 22 6 14 23 -7 24 -6 9
9 -9 9 -32 18 -52 19 -20 2 -39 6 -44 10 -4 5 1 5 12 1 17 -7 18 -5 8 7 -21
26 5 51 42 41 19 -5 25 -11 17 -16 -7 -4 -17 -4 -24 0 -7 4 -8 3 -4 -4 11 -19
44 -14 67 9 19 19 19 20 2 18 -10 -2 -29 3 -42 10 -17 10 -22 10 -16 1 5 -8 3
-11 -5 -8 -20 6 -21 36 -2 55 9 8 17 22 18 30 1 7 12 33 23 56 l21 42 -22 -26
c-13 -14 -31 -29 -41 -32 -9 -4 -16 -10 -15 -15 3 -9 -67 -92 -77 -92 -3 0 -3
41 1 90 4 51 3 90 -2 90 -5 0 -24 -14 -43 -30 -19 -17 -37 -28 -40 -24 -3 3 8
17 24 30 17 13 25 24 18 24 -9 0 -9 10 0 43 16 51 11 137 -8 137 -7 0 -16 16
-19 35 -6 33 -24 50 -23 23 2 -50 -4 -67 -19 -61 -15 5 -16 1 -10 -33 6 -34 5
-37 -7 -21 -8 9 -20 17 -26 17 -7 0 -9 5 -6 10 3 6 -1 10 -9 10 -18 0 -21 11
-7 25 13 14 24 71 25 128 0 26 3 47 6 47 9 -1 41 -28 41 -34 -3 -21 0 -26 10
-20 7 4 9 21 6 41 -5 30 -4 33 9 22 10 -8 13 -24 10 -55 -4 -27 -1 -46 7 -53
11 -8 13 10 10 91 -2 79 -6 104 -18 111 -9 4 -13 12 -10 16 2 5 -4 16 -15 26
-11 10 -20 24 -20 32 0 7 -7 13 -16 13 -8 0 -13 4 -9 9 3 6 -15 24 -40 41 -44
30 -48 31 -97 20 -37 -7 -53 -7 -58 0 -4 6 -23 12 -42 13 -20 1 -34 5 -31 10
2 4 -11 7 -31 7 -19 0 -36 5 -38 11 -2 6 -24 13 -49 14 -25 2 -73 15 -106 29
-78 33 -138 43 -149 25z m-490 -497 c3 -5 -4 -16 -14 -25 -11 -9 -22 -12 -25
-7 -3 5 -1 11 5 15 6 4 8 11 5 16 -4 5 1 9 9 9 8 0 17 -4 20 -8z m1050 -87
c-7 -18 -16 -19 -30 -5 -8 8 -8 21 0 45 l10 34 13 -30 c7 -16 10 -36 7 -44z
m-318 -34 c-3 -5 -15 -11 -26 -14 -17 -4 -19 -3 -9 9 12 15 44 20 35 5z m99
-15 c11 -8 25 -12 32 -9 13 5 17 -12 14 -49 -1 -10 3 -18 9 -18 7 0 10 -6 7
-14 -3 -8 1 -33 10 -56 14 -34 14 -43 4 -50 -21 -12 -2 -31 25 -24 18 5 26 1
31 -12 3 -11 11 -23 17 -27 7 -5 3 -7 -9 -5 -15 2 -20 -3 -20 -22 0 -15 5 -24
13 -23 19 4 15 -52 -8 -94 -11 -21 -20 -45 -20 -53 0 -9 -9 -26 -21 -39 -23
-24 -42 -17 -52 20 -4 15 0 23 14 26 31 8 25 49 -8 58 -26 6 -27 8 -10 20 10
7 15 19 11 29 -3 9 -1 23 6 30 9 12 7 17 -9 26 -12 6 -21 19 -21 29 0 15 -10
21 -40 26 -40 7 -51 19 -27 28 9 4 8 8 -3 16 -8 6 -11 11 -7 11 17 0 -52 50
-69 50 -18 1 -18 2 -2 13 9 7 20 25 23 40 4 15 14 27 21 27 8 0 19 11 24 24 8
21 21 32 41 35 3 1 14 -5 24 -13z m-779 -143 c0 -10 -5 -21 -11 -25 -6 -5 -6
-8 2 -8 6 0 15 5 18 10 7 12 25 4 25 -11 0 -5 -8 -9 -17 -9 -12 -1 -7 -6 12
-15 l30 -13 -32 -1 c-18 -1 -33 -5 -33 -11 0 -19 -29 -10 -58 20 -17 17 -26
30 -21 30 6 0 9 8 7 17 -2 11 6 19 22 24 43 12 58 10 56 -8z m530 -228 c-5
-14 11 -21 37 -16 5 1 6 -3 2 -8 -7 -12 -73 -26 -81 -18 -7 7 28 56 40 57 4 0
6 -7 2 -15z m736 -14 c-8 -4 -13 -12 -12 -17 1 -5 -4 -10 -12 -12 -9 -2 -8 0
2 7 13 10 13 11 0 11 -13 0 -13 1 0 10 8 5 20 10 25 10 6 0 4 -4 -3 -9z
m-1033 -32 c-21 -13 -51 -11 -47 3 5 15 52 28 57 15 2 -5 -3 -13 -10 -18z
m1105 -44 c-4 -8 -10 -15 -15 -15 -4 0 -6 7 -3 15 4 8 10 15 15 15 4 0 6 -7 3
-15z m-45 -29 c9 -10 8 -15 -2 -19 -8 -3 -13 3 -14 14 -2 23 1 24 16 5z m-84
-15 c3 -5 2 -12 -3 -15 -5 -3 -9 1 -9 9 0 17 3 19 12 6z m-8 -56 c0 -9 -6 -14
-12 -11 -8 2 -11 -4 -10 -18 2 -15 -3 -22 -15 -23 -16 -1 -17 1 -5 24 11 20
30 41 41 43 0 0 1 -7 1 -15z"/>
<path d="M2556 635 c-3 -8 -1 -15 4 -15 13 0 22 18 11 24 -5 3 -11 -1 -15 -9z"/>
<path d="M2520 600 c0 -5 5 -10 10 -10 6 0 10 5 10 10 0 6 -4 10 -10 10 -5 0
-10 -4 -10 -10z"/>
<path d="M3203 1040 c4 -14 7 -52 8 -85 l0 -60 15 39 c16 45 10 99 -14 118
-13 11 -15 10 -9 -12z"/>
<path d="M2920 940 c0 -19 3 -21 12 -12 9 9 9 15 0 24 -9 9 -12 7 -12 -12z"/>
<path d="M3770 662 c0 -5 9 -12 20 -15 11 -3 20 -11 19 -19 0 -10 -2 -10 -6 0
-4 9 -15 5 -41 -15 -54 -40 -88 -73 -77 -73 6 0 5 -4 -1 -8 -14 -9 -79 -132
-88 -166 -3 -14 -11 -26 -16 -26 -6 0 -15 -12 -20 -26 -6 -14 -18 -28 -28 -31
-35 -9 -49 -53 -55 -170 l-6 -113 265 0 264 0 0 314 c0 206 -4 317 -10 321
-10 6 -93 21 -177 32 -25 3 -43 1 -43 -5z"/>
<path d="M3135 580 c-4 -6 -11 -7 -17 -4 -7 4 -8 2 -4 -4 4 -7 3 -12 -3 -12
-5 0 -8 -8 -6 -17 6 -29 7 -29 14 -3 5 16 13 24 24 22 9 -2 17 2 17 7 0 15
-18 23 -25 11z"/>
<path d="M3117 458 c6 -7 13 -20 16 -28 4 -10 6 -8 6 6 1 12 -6 25 -15 28 -13
5 -14 3 -7 -6z"/>
</g>
</svg>
